<mxfile host="app.diagrams.net" modified="2021-03-26T03:09:29.525Z" agent="5.0 (Macintosh; Intel Mac OS X 11_2_3) AppleWebKit/537.36 (KHTML, like Gecko) Chrome/88.0.4324.96 Safari/537.36" etag="OJe3Y8HspL6ldg2fLPgH" version="14.5.1" type="github">
  <diagram id="JC6YWZscYOxGdfwqXaaI" name="第 1 页">
    <mxGraphModel dx="1954" dy="771" grid="1" gridSize="10" guides="1" tooltips="1" connect="1" arrows="1" fold="1" page="1" pageScale="1" pageWidth="827" pageHeight="1169" math="0" shadow="0">
      <root>
        <mxCell id="0" />
        <mxCell id="1" parent="0" />
        <mxCell id="1J5CTIB7C7j0o6gfLWX4-8" value="" style="rounded=0;whiteSpace=wrap;html=1;" vertex="1" parent="1">
          <mxGeometry x="150" y="330" width="440" height="320" as="geometry" />
        </mxCell>
        <mxCell id="1J5CTIB7C7j0o6gfLWX4-3" value="数据校验(qc)" style="rounded=0;whiteSpace=wrap;html=1;fillColor=#d5e8d4;strokeColor=#82b366;" vertex="1" parent="1">
          <mxGeometry x="380" y="350" width="180" height="60" as="geometry" />
        </mxCell>
        <mxCell id="1J5CTIB7C7j0o6gfLWX4-4" value="医院1" style="rounded=0;whiteSpace=wrap;html=1;" vertex="1" parent="1">
          <mxGeometry x="150" y="780" width="120" height="60" as="geometry" />
        </mxCell>
        <mxCell id="1J5CTIB7C7j0o6gfLWX4-6" value="..." style="rounded=0;whiteSpace=wrap;html=1;" vertex="1" parent="1">
          <mxGeometry x="310" y="780" width="120" height="60" as="geometry" />
        </mxCell>
        <mxCell id="1J5CTIB7C7j0o6gfLWX4-7" value="..." style="rounded=0;whiteSpace=wrap;html=1;" vertex="1" parent="1">
          <mxGeometry x="470" y="780" width="120" height="60" as="geometry" />
        </mxCell>
        <mxCell id="1J5CTIB7C7j0o6gfLWX4-9" value="机房-前置机" style="text;html=1;align=center;verticalAlign=middle;resizable=0;points=[];autosize=1;" vertex="1" parent="1">
          <mxGeometry x="140" y="300" width="80" height="20" as="geometry" />
        </mxCell>
        <mxCell id="1J5CTIB7C7j0o6gfLWX4-10" value="数据标准" style="rounded=0;whiteSpace=wrap;html=1;" vertex="1" parent="1">
          <mxGeometry x="150" y="670" width="440" height="30" as="geometry" />
        </mxCell>
        <mxCell id="1J5CTIB7C7j0o6gfLWX4-11" value="数据库" style="shape=cylinder3;whiteSpace=wrap;html=1;boundedLbl=1;backgroundOutline=1;size=15;" vertex="1" parent="1">
          <mxGeometry x="240" y="560" width="60" height="80" as="geometry" />
        </mxCell>
        <mxCell id="1J5CTIB7C7j0o6gfLWX4-12" value="..." style="shape=cylinder3;whiteSpace=wrap;html=1;boundedLbl=1;backgroundOutline=1;size=15;" vertex="1" parent="1">
          <mxGeometry x="330" y="560" width="60" height="80" as="geometry" />
        </mxCell>
        <mxCell id="1J5CTIB7C7j0o6gfLWX4-13" value="..." style="shape=cylinder3;whiteSpace=wrap;html=1;boundedLbl=1;backgroundOutline=1;size=15;" vertex="1" parent="1">
          <mxGeometry x="420" y="560" width="60" height="80" as="geometry" />
        </mxCell>
        <mxCell id="1J5CTIB7C7j0o6gfLWX4-14" value="控制交互(sm)" style="rounded=0;whiteSpace=wrap;html=1;fillColor=#dae8fc;strokeColor=#6c8ebf;" vertex="1" parent="1">
          <mxGeometry x="160" y="350" width="190" height="60" as="geometry" />
        </mxCell>
        <mxCell id="1J5CTIB7C7j0o6gfLWX4-15" value="" style="shape=flexArrow;endArrow=classic;html=1;" edge="1" parent="1">
          <mxGeometry width="50" height="50" relative="1" as="geometry">
            <mxPoint x="369.25" y="770" as="sourcePoint" />
            <mxPoint x="369.25" y="710" as="targetPoint" />
          </mxGeometry>
        </mxCell>
        <mxCell id="1J5CTIB7C7j0o6gfLWX4-18" value="" style="shape=flexArrow;endArrow=classic;html=1;" edge="1" parent="1">
          <mxGeometry width="50" height="50" relative="1" as="geometry">
            <mxPoint x="529.25" y="770" as="sourcePoint" />
            <mxPoint x="529.25" y="710" as="targetPoint" />
          </mxGeometry>
        </mxCell>
        <mxCell id="1J5CTIB7C7j0o6gfLWX4-22" value="" style="shape=flexArrow;endArrow=classic;html=1;" edge="1" parent="1">
          <mxGeometry width="50" height="50" relative="1" as="geometry">
            <mxPoint x="209.75" y="770" as="sourcePoint" />
            <mxPoint x="209.75" y="710" as="targetPoint" />
          </mxGeometry>
        </mxCell>
        <mxCell id="1J5CTIB7C7j0o6gfLWX4-23" value="数据上报" style="edgeLabel;html=1;align=center;verticalAlign=middle;resizable=0;points=[];" vertex="1" connectable="0" parent="1J5CTIB7C7j0o6gfLWX4-22">
          <mxGeometry x="0.2" y="-7" relative="1" as="geometry">
            <mxPoint x="-6.5" as="offset" />
          </mxGeometry>
        </mxCell>
        <mxCell id="1J5CTIB7C7j0o6gfLWX4-27" value="" style="shape=flexArrow;endArrow=classic;html=1;entryX=0.855;entryY=0;entryDx=0;entryDy=4.35;entryPerimeter=0;" edge="1" parent="1" target="1J5CTIB7C7j0o6gfLWX4-11">
          <mxGeometry width="50" height="50" relative="1" as="geometry">
            <mxPoint x="370" y="480" as="sourcePoint" />
            <mxPoint x="440" y="400" as="targetPoint" />
          </mxGeometry>
        </mxCell>
        <mxCell id="1J5CTIB7C7j0o6gfLWX4-30" value="数据拉取" style="edgeLabel;html=1;align=center;verticalAlign=middle;resizable=0;points=[];" vertex="1" connectable="0" parent="1J5CTIB7C7j0o6gfLWX4-27">
          <mxGeometry x="-0.1078" y="-5" relative="1" as="geometry">
            <mxPoint x="-1" as="offset" />
          </mxGeometry>
        </mxCell>
        <mxCell id="1J5CTIB7C7j0o6gfLWX4-28" value="" style="shape=flexArrow;endArrow=classic;html=1;entryX=0.5;entryY=0;entryDx=0;entryDy=0;entryPerimeter=0;" edge="1" parent="1" target="1J5CTIB7C7j0o6gfLWX4-12">
          <mxGeometry width="50" height="50" relative="1" as="geometry">
            <mxPoint x="380" y="490" as="sourcePoint" />
            <mxPoint x="301.29999999999995" y="574.3499999999999" as="targetPoint" />
          </mxGeometry>
        </mxCell>
        <mxCell id="1J5CTIB7C7j0o6gfLWX4-29" value="" style="shape=flexArrow;endArrow=classic;html=1;entryX=0.5;entryY=0;entryDx=0;entryDy=0;entryPerimeter=0;" edge="1" parent="1" target="1J5CTIB7C7j0o6gfLWX4-13">
          <mxGeometry width="50" height="50" relative="1" as="geometry">
            <mxPoint x="400" y="480" as="sourcePoint" />
            <mxPoint x="380" y="550" as="targetPoint" />
          </mxGeometry>
        </mxCell>
        <mxCell id="1J5CTIB7C7j0o6gfLWX4-33" value="&lt;span&gt;控制平台(sys)&lt;/span&gt;" style="rounded=0;whiteSpace=wrap;html=1;" vertex="1" parent="1">
          <mxGeometry x="150" y="220" width="440" height="60" as="geometry" />
        </mxCell>
        <mxCell id="1J5CTIB7C7j0o6gfLWX4-34" value="" style="shape=flexArrow;endArrow=classic;html=1;entryX=0.5;entryY=1;entryDx=0;entryDy=0;" edge="1" parent="1" source="1J5CTIB7C7j0o6gfLWX4-8" target="1J5CTIB7C7j0o6gfLWX4-33">
          <mxGeometry width="50" height="50" relative="1" as="geometry">
            <mxPoint x="390" y="320" as="sourcePoint" />
            <mxPoint x="440" y="270" as="targetPoint" />
          </mxGeometry>
        </mxCell>
        <mxCell id="1J5CTIB7C7j0o6gfLWX4-35" value="数据上报(校验完的)" style="edgeLabel;html=1;align=center;verticalAlign=middle;resizable=0;points=[];" vertex="1" connectable="0" parent="1J5CTIB7C7j0o6gfLWX4-34">
          <mxGeometry x="-0.0856" y="2" relative="1" as="geometry">
            <mxPoint as="offset" />
          </mxGeometry>
        </mxCell>
        <mxCell id="1J5CTIB7C7j0o6gfLWX4-36" value="" style="shape=flexArrow;endArrow=classic;html=1;entryX=0.5;entryY=1;entryDx=0;entryDy=0;" edge="1" parent="1">
          <mxGeometry width="50" height="50" relative="1" as="geometry">
            <mxPoint x="500" y="330" as="sourcePoint" />
            <mxPoint x="500" y="280" as="targetPoint" />
          </mxGeometry>
        </mxCell>
        <mxCell id="1J5CTIB7C7j0o6gfLWX4-38" value="" style="shape=flexArrow;endArrow=classic;html=1;entryX=0.5;entryY=1;entryDx=0;entryDy=0;" edge="1" parent="1">
          <mxGeometry width="50" height="50" relative="1" as="geometry">
            <mxPoint x="240" y="330" as="sourcePoint" />
            <mxPoint x="240" y="280" as="targetPoint" />
          </mxGeometry>
        </mxCell>
        <mxCell id="1J5CTIB7C7j0o6gfLWX4-42" value="ETL，数据库的上报" style="text;html=1;align=center;verticalAlign=middle;resizable=0;points=[];autosize=1;" vertex="1" parent="1">
          <mxGeometry x="620" y="310" width="120" height="20" as="geometry" />
        </mxCell>
        <mxCell id="1J5CTIB7C7j0o6gfLWX4-43" value="1、校验完数据、表结构、指数、关系、总量" style="text;html=1;align=center;verticalAlign=middle;resizable=0;points=[];autosize=1;" vertex="1" parent="1">
          <mxGeometry x="600" y="360" width="250" height="20" as="geometry" />
        </mxCell>
        <mxCell id="1J5CTIB7C7j0o6gfLWX4-44" value="1、服务器相关（CPU、内存、磁盘）" style="text;html=1;align=center;verticalAlign=middle;resizable=0;points=[];autosize=1;" vertex="1" parent="1">
          <mxGeometry x="-70" y="360" width="220" height="20" as="geometry" />
        </mxCell>
        <mxCell id="1J5CTIB7C7j0o6gfLWX4-46" value="区域-机房" style="text;html=1;align=center;verticalAlign=middle;resizable=0;points=[];autosize=1;" vertex="1" parent="1">
          <mxGeometry x="150" y="190" width="70" height="20" as="geometry" />
        </mxCell>
      </root>
    </mxGraphModel>
  </diagram>
</mxfile>
